<svg id="Capa_1" enable-background="new 0 0 512 512" height="512" viewBox="0 0 512 512" width="512" xmlns="http://www.w3.org/2000/svg"><g><g><path d="m226.994 89.102c-1.389 0-2.793-.38-4.055-1.175l-32.349-20.416c-8.886-5.608-14.191-15.228-14.191-25.736v-34.164c0-4.204 3.408-7.611 7.611-7.611 4.204 0 7.611 3.408 7.611 7.611v34.164c0 5.251 2.651 10.059 7.092 12.862l32.349 20.415c3.555 2.244 4.618 6.944 2.375 10.499-1.446 2.294-3.917 3.551-6.443 3.551z" fill="#5f6c75"/></g><g><path d="m285.006 89.102c-2.526 0-4.997-1.256-6.445-3.551-2.243-3.555-1.18-8.255 2.375-10.499l32.349-20.415c4.441-2.802 7.092-7.611 7.092-12.862v-34.164c0-4.204 3.408-7.611 7.612-7.611s7.611 3.408 7.611 7.611v34.164c0 10.507-5.305 20.128-14.191 25.736l-32.349 20.415c-1.26.796-2.665 1.176-4.054 1.176z" fill="#5f6c75"/></g><g><path d="m482.621 335.936c12.66-5.927 15.49-22.68 5.48-32.437l-27.852-27.146c-10.381-10.118-25.483-13.413-38.985-8.819-1.318.449-3.091 3.524-4.373 4.124l-15.527 20.277 8.586 8.861 11.323 11.014 4.025-1.884c4.54-2.125 9.917-1.266 13.568 2.169l21.571 20.293c5.969 5.618 14.761 7.023 22.184 3.548z" fill="#5f6c75"/></g><g><path d="m356.702 297.504 17.101 36.53 47.47-22.223v-44.25c-1.32.449-2.629.946-3.913 1.547z" fill="#4e5a61"/></g><g><path d="m29.379 335.936c-12.66-5.927-15.49-22.68-5.48-32.437l27.852-27.146c10.381-10.118 25.483-13.414 38.985-8.818 1.318.449 4.399 11.44 5.681 12.04l6.333 19.485-5.358 5.602-6.664 7.149-4.025-1.884c-4.54-2.125-9.917-1.266-13.568 2.169l-21.571 20.294c-5.97 5.616-14.762 7.021-22.185 3.546z" fill="#5f6c75"/></g><g><path d="m155.298 297.504-60.658-28.396c-1.283-.601-2.593-1.098-3.912-1.547v44.251l47.469 22.222z" fill="#4e5a61"/></g><g><path d="m408.854 411.954 8.68 12.661h4.58c5.013 0 9.518 3.058 11.368 7.717l26.725 67.289c2.968 7.473 10.195 12.379 18.237 12.379 13.714 0 23.198-13.709 18.362-26.542l-28.803-76.431c-5.611-14.89-19.859-24.746-35.771-24.746h-10.959l-14.612 5.753z" fill="#5f6c75"/></g><g><path d="m104.455 410.128-9.988 14.487h-4.581c-5.013 0-9.518 3.058-11.368 7.717l-26.725 67.289c-2.969 7.473-10.196 12.379-18.237 12.379-13.714 0-23.198-13.709-18.362-26.542l28.803-76.431c5.611-14.89 19.859-24.746 35.771-24.746h10.959l16.894 10.746z" fill="#5f6c75"/></g><g><path d="m421.273 384.281h-56.017v40.334h52.277c2.437-9.899 3.74-20.239 3.74-30.879z" fill="#4e5a61"/></g><g><path d="m146.744 384.281h-56.017v9.455c0 10.64 1.302 20.981 3.74 30.879h52.277z" fill="#4e5a61"/></g><g><path d="m442.719 115.373-12.468 31.392c-1.85 4.659-6.356 7.717-11.368 7.717h-12.174l-8.085 14.696 5.846 16.989 16.76 8.65h7.772c15.912 0 30.16-9.857 35.771-24.746l15.183-40.288c4.92-13.056-4.729-27.004-18.681-27.004-8.183 0-15.536 4.991-18.556 12.594z" fill="#5f6c75"/></g><g><path d="m317.701 194.817h103.528c-.381-15.191-5.743-29.157-14.52-40.334h-89.008z" fill="#4e5a61"/></g><g><path d="m69.281 115.373 12.468 31.392c1.85 4.659 6.356 7.717 11.368 7.717h12.174l4.035 11.347-5.846 13.153-12.71 15.835h-7.772c-15.912 0-30.16-9.857-35.771-24.746l-15.183-40.288c-4.92-13.056 4.729-27.004 18.681-27.004 8.183 0 15.536 4.991 18.556 12.594z" fill="#5f6c75"/></g><g><path d="m194.299 154.482h-89.007c-8.777 11.177-14.139 25.144-14.52 40.334h103.527z" fill="#4e5a61"/></g><g><path d="m325.604 161.261h-115.827l-11.061-33.748c0-37.243 18.047-65.444 55.29-65.444l4.165-1.989c37.243 0 67.434 30.191 67.434 67.434v33.747z" fill="#acd980"/></g><g><path d="m209.777 161.261v-31.577c0-34.455 25.514-63.307 58.386-68.869-3.803-.643-8.176-.736-12.163-.736-.002 0-.004 0-.006 0h-2.165c-37.243 0-67.434 30.191-67.434 67.434v33.748z" fill="#8cc951"/></g><g><path d="m295.311 496.721h-78.622c-55.103 0-81.301-44.67-81.301-99.773l-4.384-201.713c0-22.504 20.851-40.747 43.355-40.747h179.979c22.504 0 40.747 18.243 40.747 40.747v201.713c0 55.103-44.671 99.773-99.774 99.773z" fill="#7dc03a"/></g><g><path d="m142.535 396.947v-201.712c0-22.504 18.243-40.747 40.747-40.747h-25.619c-22.504 0-40.747 18.243-40.747 40.747v201.713c0 55.103 44.67 99.774 99.773 99.774h25.619c-55.103-.001-99.773-44.671-99.773-99.775z" fill="#6ea734"/></g><path d="m248.389 154.488h15.223v342.233h-15.223z" fill="#6ea734"/><g><path d="m345.022 377.765-79.369-140.128-5.558-2.635c-2.709-4.783-4.841 4.716-7.551 9.499l-73.558 133.263c-2.671 4.716 4.323 10.56 9.743 10.56h150.137c5.42.001 8.827-5.844 6.156-10.559z" fill="#f5de46"/></g><g><path d="m186.284 377.765 79.369-140.128-3.498-6.176c-2.709-4.783-9.601-4.783-12.31 0l-82.867 146.303c-2.671 4.716.736 10.56 6.155 10.56h19.305c-5.419.001-8.825-5.844-6.154-10.559z" fill="#ecc52e"/></g><g><path d="m256 331.193c-4.204 0-7.612-3.408-7.612-7.612v-34.287c0-4.204 3.408-7.611 7.612-7.611s7.611 3.408 7.611 7.611v34.287c.001 4.204-3.407 7.612-7.611 7.612z" fill="#5f6c75"/></g><g><path d="m256 361.587c-4.204 0-7.612-3.408-7.612-7.612v-3.056c0-4.204 3.408-7.611 7.612-7.611s7.611 3.408 7.611 7.611v3.056c.001 4.204-3.407 7.612-7.611 7.612z" fill="#5f6c75"/></g></g></svg>